<svg width="19" height="15" viewBox="0 0 19 15" fill="none" xmlns="http://www.w3.org/2000/svg">
<path fill-rule="evenodd" clip-rule="evenodd" d="M3.45814 7.4394C3.4592 7.41794 3.45973 7.39634 3.45973 7.37461C3.45973 6.65939 2.87993 6.07959 2.16471 6.07959C1.44949 6.07959 0.86969 6.65939 0.86969 7.37461C0.86969 7.39634 0.870225 7.41794 0.871282 7.4394H0.869756V13.2022H3.4598V7.4394H3.45814ZM19 7.37465C19 7.39636 18.9995 7.41795 18.9984 7.4394H19V9.9647H19.0001L19.0001 13.2023V13.8498C19.0001 14.2074 18.7102 14.4973 18.3526 14.4973C17.995 14.4973 17.7051 14.2074 17.7051 13.8498V13.2023L3.45983 13.2023V9.9647H16.41V7.4394H16.4116C16.4105 7.41795 16.41 7.39636 16.41 7.37465C16.41 6.65943 16.9898 6.07963 17.705 6.07963C18.4202 6.07963 19 6.65943 19 7.37465ZM2.16478 13.8498C2.16478 14.2074 1.87488 14.4973 1.51727 14.4973C1.15966 14.4973 0.869756 14.2074 0.869756 13.8498V13.2023H1.51727H2.16478V13.8498Z" fill="#18191F"/>
<path fill-rule="evenodd" clip-rule="evenodd" d="M2.1648 2.84195C2.1648 1.79082 2.99966 0.934686 4.04247 0.900476V0.899434H4.09854L4.10733 0.899414L4.11612 0.899434H15.7624H15.7624C16.8353 0.899434 17.705 1.76914 17.705 2.84197C17.705 2.86364 17.7046 2.88523 17.7039 2.90673H17.705V4.63604C17.5025 4.56444 17.2845 4.52548 17.0574 4.52548C16.0063 4.52548 15.1501 5.36042 15.1159 6.40328H15.115V6.44808L15.1149 6.46802L15.115 6.48795V8.66955H4.75481V6.40328H4.75364C4.7195 5.36042 3.86334 4.52548 2.81217 4.52548C2.58516 4.52548 2.36724 4.56442 2.16473 4.63599V2.90673H2.16586C2.16515 2.88522 2.1648 2.86363 2.1648 2.84195Z" fill="#18191F"/>
</svg>
