<svg width="237" height="22" viewBox="0 0 237 22" fill="none" xmlns="http://www.w3.org/2000/svg">
<path fill-rule="evenodd" clip-rule="evenodd" d="M221.458 12.4394C221.459 12.4179 221.46 12.3963 221.46 12.3746C221.46 11.6594 220.88 11.0796 220.165 11.0796C219.449 11.0796 218.87 11.6594 218.87 12.3746C218.87 12.3963 218.87 12.4179 218.871 12.4394H218.87V18.2022H221.46V12.4394H221.458ZM237 12.3746C237 12.3964 236.999 12.4179 236.998 12.4394H237V14.9647H237L237 18.2023V18.8498C237 19.2074 236.71 19.4973 236.353 19.4973C235.995 19.4973 235.705 19.2074 235.705 18.8498V18.2023L221.46 18.2023V14.9647H234.41V12.4394H234.412C234.41 12.4179 234.41 12.3964 234.41 12.3746C234.41 11.6594 234.99 11.0796 235.705 11.0796C236.42 11.0796 237 11.6594 237 12.3746ZM220.165 18.8498C220.165 19.2074 219.875 19.4973 219.517 19.4973C219.16 19.4973 218.87 19.2074 218.87 18.8498V18.2023H219.517H220.165V18.8498Z" fill="#18191F"/>
<path fill-rule="evenodd" clip-rule="evenodd" d="M220.165 7.84195C220.165 6.79082 221 5.93469 222.042 5.90048V5.89943H222.099L222.107 5.89941L222.116 5.89943H233.762H233.762C234.835 5.89943 235.705 6.76914 235.705 7.84197C235.705 7.86364 235.705 7.88523 235.704 7.90673H235.705V9.63604C235.502 9.56444 235.284 9.52548 235.057 9.52548C234.006 9.52548 233.15 10.3604 233.116 11.4033H233.115V11.4481L233.115 11.468L233.115 11.4879V13.6696H222.755V11.4033H222.754C222.719 10.3604 221.863 9.52548 220.812 9.52548C220.585 9.52548 220.367 9.56442 220.165 9.63599V7.90673H220.166C220.165 7.88522 220.165 7.86363 220.165 7.84195Z" fill="#18191F"/>
<path d="M11.7091 19.62C10.6424 19.62 9.65573 19.4467 8.74906 19.1C7.85573 18.74 7.07573 18.24 6.40906 17.6C5.75573 16.96 5.2424 16.2067 4.86906 15.34C4.50906 14.4733 4.32906 13.5267 4.32906 12.5C4.32906 11.4733 4.50906 10.5267 4.86906 9.66C5.2424 8.79333 5.7624 8.04 6.42906 7.4C7.09573 6.76 7.87573 6.26667 8.76906 5.92C9.67573 5.56 10.6624 5.38 11.7291 5.38C12.7957 5.38 13.7691 5.54667 14.6491 5.88C15.5424 6.21333 16.3024 6.72 16.9291 7.4L16.0091 8.34C15.4224 7.75333 14.7757 7.33333 14.0691 7.08C13.3624 6.82667 12.6024 6.7 11.7891 6.7C10.9224 6.7 10.1224 6.84667 9.38906 7.14C8.66906 7.42 8.03573 7.82667 7.48906 8.36C6.95573 8.88 6.53573 9.49333 6.22906 10.2C5.93573 10.8933 5.78906 11.66 5.78906 12.5C5.78906 13.3267 5.93573 14.0933 6.22906 14.8C6.53573 15.5067 6.95573 16.1267 7.48906 16.66C8.03573 17.18 8.66906 17.5867 9.38906 17.88C10.1224 18.16 10.9157 18.3 11.7691 18.3C12.5691 18.3 13.3224 18.18 14.0291 17.94C14.7491 17.7 15.4091 17.2933 16.0091 16.72L16.8491 17.84C16.1824 18.4267 15.4024 18.8733 14.5091 19.18C13.6157 19.4733 12.6824 19.62 11.7091 19.62ZM15.4291 17.66V12.5H16.8491V17.84L15.4291 17.66ZM22.3578 11.76H29.7578V13.02H22.3578V11.76ZM22.5178 18.22H30.9378V19.5H21.0378V5.5H30.6378V6.78H22.5178V18.22ZM34.4167 19.5V5.5H35.6367L45.2967 17.66H44.6567V5.5H46.1167V19.5H44.8967L35.2567 7.34H35.8967V19.5H34.4167ZM53.4062 19.5V6.78H48.4863V5.5H59.8063V6.78H54.8863V19.5H53.4062ZM62.1706 19.5V5.5H63.6506V18.22H71.4906V19.5H62.1706ZM75.268 11.76H82.668V13.02H75.268V11.76ZM75.428 18.22H83.848V19.5H73.948V5.5H83.548V6.78H75.428V18.22ZM87.3269 19.5V5.5H88.5469L94.9469 16.42H94.3069L100.647 5.5H101.867V19.5H100.447V7.72H100.787L94.9469 17.72H94.2469L88.3669 7.72H88.7469V19.5H87.3269ZM107.748 11.76H115.148V13.02H107.748V11.76ZM107.908 18.22H116.328V19.5H106.428V5.5H116.028V6.78H107.908V18.22ZM119.807 19.5V5.5H121.027L130.687 17.66H130.047V5.5H131.507V19.5H130.287L120.647 7.34H121.287V19.5H119.807ZM134.917 9.54L135.797 5.86L135.957 6.7C135.65 6.7 135.39 6.60667 135.177 6.42C134.977 6.22 134.877 5.96 134.877 5.64C134.877 5.32 134.977 5.06 135.177 4.86C135.39 4.66 135.644 4.56 135.937 4.56C136.244 4.56 136.49 4.66667 136.677 4.88C136.877 5.08 136.977 5.33333 136.977 5.64C136.977 5.74667 136.97 5.85333 136.957 5.96C136.944 6.06667 136.917 6.18667 136.877 6.32C136.85 6.44 136.804 6.59333 136.737 6.78L135.877 9.54H134.917ZM144.37 19.62C143.33 19.62 142.33 19.4533 141.37 19.12C140.424 18.7733 139.69 18.3333 139.17 17.8L139.75 16.66C140.244 17.14 140.904 17.5467 141.73 17.88C142.57 18.2 143.45 18.36 144.37 18.36C145.25 18.36 145.964 18.2533 146.51 18.04C147.07 17.8133 147.477 17.5133 147.73 17.14C147.997 16.7667 148.13 16.3533 148.13 15.9C148.13 15.3533 147.97 14.9133 147.65 14.58C147.344 14.2467 146.937 13.9867 146.43 13.8C145.924 13.6 145.364 13.4267 144.75 13.28C144.137 13.1333 143.524 12.98 142.91 12.82C142.297 12.6467 141.73 12.42 141.21 12.14C140.704 11.86 140.29 11.4933 139.97 11.04C139.664 10.5733 139.51 9.96667 139.51 9.22C139.51 8.52667 139.69 7.89333 140.05 7.32C140.424 6.73333 140.99 6.26667 141.75 5.92C142.51 5.56 143.484 5.38 144.67 5.38C145.457 5.38 146.237 5.49333 147.01 5.72C147.784 5.93333 148.45 6.23333 149.01 6.62L148.51 7.8C147.91 7.4 147.27 7.10667 146.59 6.92C145.924 6.73333 145.277 6.64 144.65 6.64C143.81 6.64 143.117 6.75333 142.57 6.98C142.024 7.20667 141.617 7.51333 141.35 7.9C141.097 8.27333 140.97 8.7 140.97 9.18C140.97 9.72667 141.124 10.1667 141.43 10.5C141.75 10.8333 142.164 11.0933 142.67 11.28C143.19 11.4667 143.757 11.6333 144.37 11.78C144.984 11.9267 145.59 12.0867 146.19 12.26C146.804 12.4333 147.364 12.66 147.87 12.94C148.39 13.2067 148.804 13.5667 149.11 14.02C149.43 14.4733 149.59 15.0667 149.59 15.8C149.59 16.48 149.404 17.1133 149.03 17.7C148.657 18.2733 148.084 18.74 147.31 19.1C146.55 19.4467 145.57 19.62 144.37 19.62ZM164.13 19.62C163.076 19.62 162.103 19.4467 161.21 19.1C160.316 18.74 159.543 18.24 158.89 17.6C158.236 16.96 157.723 16.2067 157.35 15.34C156.99 14.4733 156.81 13.5267 156.81 12.5C156.81 11.4733 156.99 10.5267 157.35 9.66C157.723 8.79333 158.236 8.04 158.89 7.4C159.556 6.76 160.336 6.26667 161.23 5.92C162.123 5.56 163.096 5.38 164.15 5.38C165.163 5.38 166.116 5.55333 167.01 5.9C167.903 6.23333 168.656 6.74 169.27 7.42L168.33 8.36C167.756 7.77333 167.123 7.35333 166.43 7.1C165.736 6.83333 164.99 6.7 164.19 6.7C163.35 6.7 162.57 6.84667 161.85 7.14C161.13 7.42 160.503 7.82667 159.97 8.36C159.436 8.88 159.016 9.49333 158.71 10.2C158.416 10.8933 158.27 11.66 158.27 12.5C158.27 13.34 158.416 14.1133 158.71 14.82C159.016 15.5133 159.436 16.1267 159.97 16.66C160.503 17.18 161.13 17.5867 161.85 17.88C162.57 18.16 163.35 18.3 164.19 18.3C164.99 18.3 165.736 18.1667 166.43 17.9C167.123 17.6333 167.756 17.2067 168.33 16.62L169.27 17.56C168.656 18.24 167.903 18.7533 167.01 19.1C166.116 19.4467 165.156 19.62 164.13 19.62ZM172.425 19.5V5.5H177.665C178.851 5.5 179.871 5.69333 180.725 6.08C181.578 6.45333 182.231 7 182.685 7.72C183.151 8.42667 183.385 9.28667 183.385 10.3C183.385 11.2867 183.151 12.14 182.685 12.86C182.231 13.5667 181.578 14.1133 180.725 14.5C179.871 14.8733 178.851 15.06 177.665 15.06H173.245L173.905 14.38V19.5H172.425ZM181.985 19.5L178.385 14.42H179.985L183.605 19.5H181.985ZM173.905 14.5L173.245 13.8H177.625C179.025 13.8 180.085 13.4933 180.805 12.88C181.538 12.2667 181.905 11.4067 181.905 10.3C181.905 9.18 181.538 8.31333 180.805 7.7C180.085 7.08667 179.025 6.78 177.625 6.78H173.245L173.905 6.08V14.5ZM186.878 19.5V5.5H188.358V19.5H186.878ZM192.913 19.5V5.5H198.953C200.513 5.5 201.719 5.81333 202.573 6.44C203.439 7.06667 203.873 7.95333 203.873 9.1C203.873 9.86 203.693 10.5 203.333 11.02C202.986 11.54 202.506 11.9333 201.893 12.2C201.293 12.4667 200.633 12.6 199.913 12.6L200.253 12.12C201.146 12.12 201.913 12.26 202.553 12.54C203.206 12.8067 203.713 13.2133 204.073 13.76C204.433 14.2933 204.613 14.96 204.613 15.76C204.613 16.9467 204.173 17.8667 203.293 18.52C202.426 19.1733 201.113 19.5 199.353 19.5H192.913ZM194.393 18.28H199.333C200.559 18.28 201.499 18.0733 202.153 17.66C202.806 17.2333 203.133 16.56 203.133 15.64C203.133 14.7333 202.806 14.0733 202.153 13.66C201.499 13.2333 200.559 13.02 199.333 13.02H194.233V11.8H198.853C199.973 11.8 200.839 11.5867 201.453 11.16C202.079 10.7333 202.393 10.1 202.393 9.26C202.393 8.40667 202.079 7.77333 201.453 7.36C200.839 6.93333 199.973 6.72 198.853 6.72H194.393V18.28Z" fill="#18191F"/>
</svg>
